<mxfile host="app.diagrams.net" modified="2024-07-19T04:36:22.859Z" agent="Mozilla/5.0 (Windows NT 10.0; Win64; x64; rv:125.0) Gecko/20100101 Firefox/125.0" etag="fogONv-xxVIP09EA-OPC" version="24.6.5" type="github">
  <diagram name="Page-1" id="8ir6hIq5gK44ZbDbW9a-">
    <mxGraphModel dx="1434" dy="774" grid="1" gridSize="10" guides="1" tooltips="1" connect="1" arrows="1" fold="1" page="1" pageScale="1" pageWidth="1169" pageHeight="827" math="0" shadow="0">
      <root>
        <mxCell id="0" />
        <mxCell id="1" parent="0" />
        <mxCell id="srqMK5zsMFSrNn55u4Dn-37" value="" style="edgeStyle=elbowEdgeStyle;rounded=0;orthogonalLoop=1;jettySize=auto;html=1;fontFamily=Times New Roman;fontStyle=0;fontSize=14;" parent="1" edge="1">
          <mxGeometry relative="1" as="geometry">
            <mxPoint x="79" y="200" as="sourcePoint" />
            <mxPoint x="190" y="239" as="targetPoint" />
            <Array as="points">
              <mxPoint x="79" y="220" />
            </Array>
          </mxGeometry>
        </mxCell>
        <mxCell id="srqMK5zsMFSrNn55u4Dn-11" value="IV 1 (Public Key)" style="sketch=0;pointerEvents=1;shadow=0;dashed=0;html=1;strokeColor=none;labelPosition=center;verticalLabelPosition=bottom;verticalAlign=top;outlineConnect=0;align=center;shape=mxgraph.office.security.key_permissions;fillColor=#2072B8;direction=south;flipH=1;fontStyle=0;fontSize=14;fontFamily=Times New Roman;" parent="1" vertex="1">
          <mxGeometry x="60" y="150" width="40" height="20" as="geometry" />
        </mxCell>
        <mxCell id="srqMK5zsMFSrNn55u4Dn-18" value="" style="rounded=0;orthogonalLoop=1;jettySize=auto;html=1;fontSize=14;edgeStyle=orthogonalEdgeStyle;fontFamily=Times New Roman;fontStyle=0" parent="1" source="srqMK5zsMFSrNn55u4Dn-12" target="srqMK5zsMFSrNn55u4Dn-11" edge="1">
          <mxGeometry relative="1" as="geometry">
            <mxPoint x="80" y="145" as="targetPoint" />
          </mxGeometry>
        </mxCell>
        <mxCell id="srqMK5zsMFSrNn55u4Dn-12" value="Secret Key (Private Key)" style="sketch=0;pointerEvents=1;shadow=0;dashed=0;html=1;strokeColor=none;fillColor=#505050;labelPosition=center;verticalLabelPosition=bottom;verticalAlign=middle;outlineConnect=0;align=center;shape=mxgraph.office.security.key_permissions;flipH=1;flipV=0;direction=south;fontStyle=0;fontSize=14;horizontal=1;fontFamily=Times New Roman;" parent="1" vertex="1">
          <mxGeometry x="200" y="50" width="60" height="30" as="geometry" />
        </mxCell>
        <mxCell id="srqMK5zsMFSrNn55u4Dn-41" value="" style="edgeStyle=orthogonalEdgeStyle;rounded=0;orthogonalLoop=1;jettySize=auto;html=1;fontFamily=Times New Roman;fontStyle=0;fontSize=14;" parent="1" target="srqMK5zsMFSrNn55u4Dn-30" edge="1">
          <mxGeometry relative="1" as="geometry">
            <mxPoint x="190" y="278" as="sourcePoint" />
            <mxPoint x="30" y="370" as="targetPoint" />
            <Array as="points">
              <mxPoint x="60" y="278" />
            </Array>
          </mxGeometry>
        </mxCell>
        <mxCell id="srqMK5zsMFSrNn55u4Dn-13" value="Plain&lt;br style=&quot;font-size: 14px;&quot;&gt;Text" style="sketch=0;pointerEvents=1;shadow=0;dashed=0;html=1;strokeColor=none;fillColor=#505050;labelPosition=center;verticalLabelPosition=bottom;verticalAlign=top;outlineConnect=0;align=center;shape=mxgraph.office.concepts.document;fontSize=14;fontStyle=0;fontFamily=Times New Roman;" parent="1" vertex="1">
          <mxGeometry x="200" y="200" width="50" height="70" as="geometry" />
        </mxCell>
        <mxCell id="srqMK5zsMFSrNn55u4Dn-16" value="IV 2 (Public Key)" style="sketch=0;pointerEvents=1;shadow=0;dashed=0;html=1;strokeColor=none;labelPosition=center;verticalLabelPosition=bottom;verticalAlign=top;outlineConnect=0;align=center;shape=mxgraph.office.security.key_permissions;fillColor=#2072B8;direction=south;flipH=1;fontStyle=0;fontSize=14;fontFamily=Times New Roman;" parent="1" vertex="1">
          <mxGeometry x="340" y="150" width="40" height="20" as="geometry" />
        </mxCell>
        <mxCell id="srqMK5zsMFSrNn55u4Dn-20" value="" style="rounded=0;orthogonalLoop=1;jettySize=auto;html=1;fontSize=14;edgeStyle=orthogonalEdgeStyle;fontFamily=Times New Roman;fontStyle=0" parent="1" source="srqMK5zsMFSrNn55u4Dn-12" target="srqMK5zsMFSrNn55u4Dn-16" edge="1">
          <mxGeometry relative="1" as="geometry">
            <mxPoint x="78" y="90" as="sourcePoint" />
            <mxPoint x="23" y="160" as="targetPoint" />
          </mxGeometry>
        </mxCell>
        <mxCell id="srqMK5zsMFSrNn55u4Dn-25" value="Encyption" style="text;strokeColor=none;fillColor=none;html=1;fontSize=14;fontStyle=2;verticalAlign=middle;align=center;fontFamily=Times New Roman;" parent="1" vertex="1">
          <mxGeometry x="270" y="278" width="107.5" height="25" as="geometry" />
        </mxCell>
        <mxCell id="srqMK5zsMFSrNn55u4Dn-30" value="&lt;div style=&quot;font-size: 14px;&quot;&gt;Cipher&amp;nbsp;&lt;/div&gt;&lt;div style=&quot;font-size: 14px;&quot;&gt;Text 1&lt;br style=&quot;font-size: 14px;&quot;&gt;&lt;/div&gt;" style="sketch=0;pointerEvents=1;shadow=0;dashed=0;html=1;strokeColor=none;fillColor=#505050;labelPosition=center;verticalLabelPosition=bottom;verticalAlign=top;outlineConnect=0;align=center;shape=mxgraph.office.concepts.file_key;fontFamily=Times New Roman;fontStyle=0;fontSize=14;" parent="1" vertex="1">
          <mxGeometry x="40" y="360" width="50" height="70" as="geometry" />
        </mxCell>
        <mxCell id="srqMK5zsMFSrNn55u4Dn-31" value="&lt;div style=&quot;font-size: 14px;&quot;&gt;Cipher&amp;nbsp;&lt;/div&gt;&lt;div style=&quot;font-size: 14px;&quot;&gt;Text 2&lt;/div&gt;" style="sketch=0;pointerEvents=1;shadow=0;dashed=0;html=1;strokeColor=none;fillColor=#505050;labelPosition=center;verticalLabelPosition=bottom;verticalAlign=top;outlineConnect=0;align=center;shape=mxgraph.office.concepts.file_key;fontFamily=Times New Roman;fontStyle=0;fontSize=14;" parent="1" vertex="1">
          <mxGeometry x="360" y="360" width="50" height="70" as="geometry" />
        </mxCell>
        <mxCell id="srqMK5zsMFSrNn55u4Dn-38" value="" style="edgeStyle=elbowEdgeStyle;rounded=0;orthogonalLoop=1;jettySize=auto;html=1;fontFamily=Times New Roman;fontStyle=0;fontSize=14;" parent="1" edge="1">
          <mxGeometry relative="1" as="geometry">
            <mxPoint x="360" y="200" as="sourcePoint" />
            <mxPoint x="260" y="239" as="targetPoint" />
            <Array as="points">
              <mxPoint x="360" y="210" />
            </Array>
          </mxGeometry>
        </mxCell>
        <mxCell id="srqMK5zsMFSrNn55u4Dn-42" value="" style="edgeStyle=orthogonalEdgeStyle;rounded=0;orthogonalLoop=1;jettySize=auto;html=1;fontFamily=Times New Roman;fontStyle=0;fontSize=14;" parent="1" target="srqMK5zsMFSrNn55u4Dn-31" edge="1">
          <mxGeometry relative="1" as="geometry">
            <mxPoint x="260" y="278" as="sourcePoint" />
            <mxPoint x="380" y="370" as="targetPoint" />
            <Array as="points">
              <mxPoint x="380" y="278" />
            </Array>
          </mxGeometry>
        </mxCell>
        <mxCell id="srqMK5zsMFSrNn55u4Dn-43" value="&amp;lt;== not equal ==&amp;gt;" style="text;strokeColor=none;fillColor=none;html=1;fontSize=14;fontStyle=2;verticalAlign=middle;align=center;fontColor=#FF0000;fontFamily=Times New Roman;" parent="1" vertex="1">
          <mxGeometry x="145" y="374" width="160" height="27.5" as="geometry" />
        </mxCell>
        <mxCell id="srqMK5zsMFSrNn55u4Dn-46" value="Encyption" style="text;strokeColor=none;fillColor=none;html=1;fontSize=14;fontStyle=2;verticalAlign=middle;align=center;fontFamily=Times New Roman;" parent="1" vertex="1">
          <mxGeometry x="70" y="278" width="107.5" height="25" as="geometry" />
        </mxCell>
        <mxCell id="DaxE1xW_ezMR3YIEu_dt-1" value="" style="edgeStyle=elbowEdgeStyle;rounded=0;orthogonalLoop=1;jettySize=auto;html=1;fontFamily=Times New Roman;fontStyle=0;fontSize=14;" parent="1" edge="1">
          <mxGeometry relative="1" as="geometry">
            <mxPoint x="559" y="200" as="sourcePoint" />
            <mxPoint x="670" y="239" as="targetPoint" />
            <Array as="points">
              <mxPoint x="559" y="220" />
            </Array>
          </mxGeometry>
        </mxCell>
        <mxCell id="DaxE1xW_ezMR3YIEu_dt-2" value="(Generate) IV 1" style="sketch=0;pointerEvents=1;shadow=0;dashed=0;html=1;strokeColor=none;labelPosition=center;verticalLabelPosition=bottom;verticalAlign=top;outlineConnect=0;align=center;shape=mxgraph.office.security.key_permissions;fillColor=#2072B8;direction=south;flipH=1;fontStyle=0;fontSize=14;fontFamily=Times New Roman;" parent="1" vertex="1">
          <mxGeometry x="540" y="150" width="40" height="20" as="geometry" />
        </mxCell>
        <mxCell id="DaxE1xW_ezMR3YIEu_dt-3" value="" style="rounded=0;orthogonalLoop=1;jettySize=auto;html=1;fontSize=14;edgeStyle=orthogonalEdgeStyle;fontFamily=Times New Roman;fontStyle=0" parent="1" source="DaxE1xW_ezMR3YIEu_dt-4" target="DaxE1xW_ezMR3YIEu_dt-2" edge="1">
          <mxGeometry relative="1" as="geometry">
            <mxPoint x="560" y="145" as="targetPoint" />
          </mxGeometry>
        </mxCell>
        <mxCell id="DaxE1xW_ezMR3YIEu_dt-4" value="&lt;span style=&quot;&quot;&gt;Session ID&lt;/span&gt; (Every Login)" style="sketch=0;pointerEvents=1;shadow=0;dashed=0;html=1;strokeColor=none;fillColor=#505050;labelPosition=center;verticalLabelPosition=bottom;verticalAlign=middle;outlineConnect=0;align=center;shape=mxgraph.office.security.key_permissions;flipH=1;flipV=0;direction=south;fontStyle=0;fontSize=14;horizontal=1;fontFamily=Times New Roman;labelBackgroundColor=#CCE5FF;" parent="1" vertex="1">
          <mxGeometry x="680" y="50" width="60" height="30" as="geometry" />
        </mxCell>
        <mxCell id="DaxE1xW_ezMR3YIEu_dt-5" value="" style="edgeStyle=orthogonalEdgeStyle;rounded=0;orthogonalLoop=1;jettySize=auto;html=1;fontFamily=Times New Roman;fontStyle=0;fontSize=14;" parent="1" target="DaxE1xW_ezMR3YIEu_dt-10" edge="1">
          <mxGeometry relative="1" as="geometry">
            <mxPoint x="670" y="278" as="sourcePoint" />
            <mxPoint x="510" y="370" as="targetPoint" />
            <Array as="points">
              <mxPoint x="540" y="278" />
            </Array>
          </mxGeometry>
        </mxCell>
        <mxCell id="DaxE1xW_ezMR3YIEu_dt-6" value="Plain&lt;br style=&quot;font-size: 14px;&quot;&gt;Text" style="sketch=0;pointerEvents=1;shadow=0;dashed=0;html=1;strokeColor=none;fillColor=#505050;labelPosition=center;verticalLabelPosition=bottom;verticalAlign=top;outlineConnect=0;align=center;shape=mxgraph.office.concepts.document;fontSize=14;fontStyle=0;fontFamily=Times New Roman;" parent="1" vertex="1">
          <mxGeometry x="680" y="200" width="50" height="70" as="geometry" />
        </mxCell>
        <mxCell id="DaxE1xW_ezMR3YIEu_dt-7" value="(Generate) IV 2" style="sketch=0;pointerEvents=1;shadow=0;dashed=0;html=1;strokeColor=none;labelPosition=center;verticalLabelPosition=bottom;verticalAlign=top;outlineConnect=0;align=center;shape=mxgraph.office.security.key_permissions;fillColor=#2072B8;direction=south;flipH=1;fontStyle=0;fontSize=14;fontFamily=Times New Roman;" parent="1" vertex="1">
          <mxGeometry x="820" y="150" width="40" height="20" as="geometry" />
        </mxCell>
        <mxCell id="DaxE1xW_ezMR3YIEu_dt-8" value="" style="rounded=0;orthogonalLoop=1;jettySize=auto;html=1;fontSize=14;edgeStyle=orthogonalEdgeStyle;fontFamily=Times New Roman;fontStyle=0" parent="1" source="DaxE1xW_ezMR3YIEu_dt-4" target="DaxE1xW_ezMR3YIEu_dt-7" edge="1">
          <mxGeometry relative="1" as="geometry">
            <mxPoint x="558" y="90" as="sourcePoint" />
            <mxPoint x="503" y="160" as="targetPoint" />
          </mxGeometry>
        </mxCell>
        <mxCell id="DaxE1xW_ezMR3YIEu_dt-9" value="Encyption" style="text;strokeColor=none;fillColor=none;html=1;fontSize=14;fontStyle=2;verticalAlign=middle;align=center;fontFamily=Times New Roman;" parent="1" vertex="1">
          <mxGeometry x="750" y="278" width="107.5" height="25" as="geometry" />
        </mxCell>
        <mxCell id="DaxE1xW_ezMR3YIEu_dt-10" value="&lt;div style=&quot;font-size: 14px;&quot;&gt;Cipher&amp;nbsp;&lt;/div&gt;&lt;div style=&quot;font-size: 14px;&quot;&gt;Text 1&lt;br style=&quot;font-size: 14px;&quot;&gt;&lt;/div&gt;" style="sketch=0;pointerEvents=1;shadow=0;dashed=0;html=1;strokeColor=none;fillColor=#505050;labelPosition=center;verticalLabelPosition=bottom;verticalAlign=top;outlineConnect=0;align=center;shape=mxgraph.office.concepts.file_key;fontFamily=Times New Roman;fontStyle=0;fontSize=14;" parent="1" vertex="1">
          <mxGeometry x="520" y="360" width="50" height="70" as="geometry" />
        </mxCell>
        <mxCell id="DaxE1xW_ezMR3YIEu_dt-11" value="&lt;div style=&quot;font-size: 14px;&quot;&gt;Cipher&amp;nbsp;&lt;/div&gt;&lt;div style=&quot;font-size: 14px;&quot;&gt;Text 2&lt;/div&gt;" style="sketch=0;pointerEvents=1;shadow=0;dashed=0;html=1;strokeColor=none;fillColor=#505050;labelPosition=center;verticalLabelPosition=bottom;verticalAlign=top;outlineConnect=0;align=center;shape=mxgraph.office.concepts.file_key;fontFamily=Times New Roman;fontStyle=0;fontSize=14;" parent="1" vertex="1">
          <mxGeometry x="840" y="360" width="50" height="70" as="geometry" />
        </mxCell>
        <mxCell id="DaxE1xW_ezMR3YIEu_dt-12" value="" style="edgeStyle=elbowEdgeStyle;rounded=0;orthogonalLoop=1;jettySize=auto;html=1;fontFamily=Times New Roman;fontStyle=0;fontSize=14;" parent="1" edge="1">
          <mxGeometry relative="1" as="geometry">
            <mxPoint x="840" y="200" as="sourcePoint" />
            <mxPoint x="740" y="239" as="targetPoint" />
            <Array as="points">
              <mxPoint x="840" y="210" />
            </Array>
          </mxGeometry>
        </mxCell>
        <mxCell id="DaxE1xW_ezMR3YIEu_dt-13" value="" style="edgeStyle=orthogonalEdgeStyle;rounded=0;orthogonalLoop=1;jettySize=auto;html=1;fontFamily=Times New Roman;fontStyle=0;fontSize=14;" parent="1" target="DaxE1xW_ezMR3YIEu_dt-11" edge="1">
          <mxGeometry relative="1" as="geometry">
            <mxPoint x="740" y="278" as="sourcePoint" />
            <mxPoint x="860" y="370" as="targetPoint" />
            <Array as="points">
              <mxPoint x="860" y="278" />
            </Array>
          </mxGeometry>
        </mxCell>
        <mxCell id="DaxE1xW_ezMR3YIEu_dt-14" value="&amp;lt;== not equal ==&amp;gt;" style="text;strokeColor=none;fillColor=none;html=1;fontSize=14;fontStyle=2;verticalAlign=middle;align=center;fontColor=#FF0000;fontFamily=Times New Roman;" parent="1" vertex="1">
          <mxGeometry x="625" y="374" width="160" height="27.5" as="geometry" />
        </mxCell>
        <mxCell id="DaxE1xW_ezMR3YIEu_dt-15" value="Encyption" style="text;strokeColor=none;fillColor=none;html=1;fontSize=14;fontStyle=2;verticalAlign=middle;align=center;fontFamily=Times New Roman;" parent="1" vertex="1">
          <mxGeometry x="550" y="278" width="107.5" height="25" as="geometry" />
        </mxCell>
      </root>
    </mxGraphModel>
  </diagram>
</mxfile>
